<?xml version="1.0" standalone="no"?>
<!DOCTYPE svg PUBLIC "-//W3C//DTD SVG 20010904//EN"
 "http://www.w3.org/TR/2001/REC-SVG-20010904/DTD/svg10.dtd">
<svg version="1.0" xmlns="http://www.w3.org/2000/svg"
 width="334.000000pt" height="334.000000pt" viewBox="0 0 334.000000 334.000000"
 preserveAspectRatio="xMidYMid meet">
<metadata>
Created by potrace 1.11, written by Peter Selinger 2001-2013
</metadata>
<g transform="translate(0.000000,334.000000) scale(0.100000,-0.100000)"
fill="#000000" stroke="none">
<path d="M1638 3330 c-25 -15 -33 -68 -14 -89 21 -23 20 -27 -8 -64 -14 -18
-28 -44 -31 -60 -5 -17 -15 -29 -29 -31 -11 -2 -48 -9 -81 -14 -33 -6 -118
-33 -190 -62 -149 -59 -229 -73 -270 -46 -23 15 -25 22 -20 59 6 39 4 44 -19
57 -32 17 -84 20 -111 7 -80 -39 -69 -138 20 -185 l32 -17 -60 -125 c-34 -69
-109 -224 -168 -345 -82 -168 -105 -223 -96 -233 19 -24 120 -69 192 -87 89
-22 221 -22 305 0 70 18 210 81 210 94 0 8 -287 603 -310 643 -17 31 -12 36
27 28 63 -15 140 -1 257 44 104 41 171 63 223 72 25 5 76 -13 70 -23 -10 -16
15 -129 32 -148 17 -18 19 -44 19 -325 0 -301 0 -306 -24 -363 -17 -39 -26
-85 -29 -140 -3 -45 -10 -94 -16 -109 -16 -39 -80 -67 -161 -70 -47 -2 -68 -6
-68 -15 0 -16 10 -15 -140 -18 -69 -2 -131 -4 -137 -4 -8 -1 -13 -16 -13 -41
l0 -41 637 3 638 3 2 38 3 37 -52 1 c-29 1 -92 1 -140 0 -73 -1 -89 2 -97 16
-7 13 -24 18 -68 20 -123 4 -172 41 -179 134 -8 113 -14 151 -35 191 -20 39
-21 57 -23 342 l-1 301 27 55 c18 34 28 71 28 98 0 35 4 44 23 51 37 14 91 3
230 -49 174 -64 243 -76 324 -55 l24 6 -30 -58 c-62 -124 -303 -618 -303 -623
-1 -3 21 -17 48 -32 128 -72 301 -98 449 -68 61 12 196 72 215 95 8 9 -12 58
-76 186 -47 96 -104 212 -126 259 -22 47 -60 124 -84 173 l-44 87 23 9 c35 14
82 65 85 92 7 80 -66 123 -158 94 -24 -8 -33 -36 -25 -75 5 -23 2 -32 -19 -45
-46 -30 -104 -22 -249 36 -145 59 -172 66 -255 76 -50 6 -54 8 -74 47 -11 23
-30 54 -40 69 -20 28 -20 28 0 50 22 25 21 50 -4 78 -19 21 -40 24 -66 9z
m931 -808 c83 -167 149 -306 147 -310 -2 -4 -71 -7 -153 -7 l-148 0 -3 314
c-1 173 0 313 2 310 2 -2 72 -140 155 -307z m-1644 -9 l0 -308 -152 0 c-84 0
-153 2 -153 5 -1 9 295 609 300 609 3 1 5 -137 5 -306z m193 2 c83 -168 152
-306 152 -308 0 -2 -299 -1 -311 2 -8 1 -8 611 0 611 3 0 75 -137 159 -305z
m1267 0 c0 -168 -2 -306 -5 -306 -22 -5 -293 -3 -296 2 -2 4 61 138 141 298
80 160 145 296 145 301 0 6 3 10 8 10 4 0 7 -137 7 -305z"/>
<path d="M333 2503 c-64 -104 -125 -281 -139 -403 -3 -25 -7 -50 -9 -56 -2 -7
11 -25 28 -41 39 -36 197 -151 252 -183 22 -13 42 -27 45 -30 3 -3 27 -17 53
-30 26 -14 41 -26 34 -28 -20 -4 -161 62 -280 131 -54 31 -110 60 -124 63
l-26 7 7 -104 c12 -199 21 -237 62 -259 46 -25 193 -69 277 -82 110 -18 100
-30 -23 -31 -41 0 -167 20 -181 29 -4 2 -27 7 -50 10 l-42 6 6 -40 c8 -48 47
-165 73 -218 l19 -39 147 0 c81 0 144 -3 140 -6 -6 -6 -107 -26 -214 -44 -21
-3 -38 -9 -38 -12 0 -3 14 -33 31 -67 72 -142 96 -166 154 -152 14 4 26 6 27
6 2 0 39 11 83 25 43 13 81 22 83 20 8 -8 -64 -45 -125 -66 -35 -11 -63 -25
-63 -30 0 -15 132 -169 145 -169 7 0 43 11 80 25 38 13 70 23 72 21 2 -1 -24
-20 -58 -41 l-61 -37 29 -30 c42 -45 142 -101 298 -166 189 -80 267 -118 353
-176 101 -67 160 -127 217 -224 27 -45 52 -82 56 -82 4 0 29 37 56 81 82 139
194 234 363 308 41 18 89 39 107 47 17 8 34 14 38 14 4 0 21 6 38 14 18 8 66
29 107 47 111 47 230 133 230 166 0 7 -13 22 -30 35 -38 27 -39 41 -2 23 55
-26 75 -25 107 3 37 34 105 113 105 123 0 4 -19 14 -42 24 -58 22 -171 86
-165 92 3 2 38 -6 79 -18 40 -12 78 -24 85 -25 6 -1 28 -7 48 -14 28 -9 39 -9
51 1 37 30 144 200 144 227 0 4 -44 17 -97 27 -134 24 -156 36 -58 29 44 -3
98 -7 120 -9 22 -3 45 -1 52 3 19 12 123 259 123 294 0 9 -48 8 -225 -8 -33
-3 -56 -2 -52 2 4 4 13 9 20 10 28 6 205 63 238 77 26 11 38 23 42 43 12 57
20 211 13 267 -9 66 0 67 -141 -17 -87 -51 -254 -136 -270 -136 -16 0 -1 17
26 29 46 20 205 126 292 195 l78 61 -5 80 c-9 134 -77 330 -149 427 -24 33
-32 30 -48 -20 -24 -75 -91 -203 -148 -282 -69 -97 -146 -178 -261 -274 -199
-167 -208 -192 -185 -491 24 -300 -8 -401 -178 -567 -144 -141 -290 -142 -328
-3 -16 58 -19 144 -6 156 7 6 28 19 47 31 l35 21 -35 29 c-106 91 -232 94
-323 9 -38 -35 -52 -63 -77 -157 -25 -93 -57 -140 -114 -165 -54 -23 -96 -18
-156 21 -61 39 -110 99 -154 187 -74 147 -96 253 -89 422 10 236 8 293 -12
331 -26 50 -54 82 -132 147 -248 210 -348 337 -428 550 -14 40 -30 75 -35 78
-5 3 -21 -16 -37 -42z"/>
</g>
</svg>
