<?xml version="1.0" standalone="no"?>
<!DOCTYPE svg PUBLIC "-//W3C//DTD SVG 20010904//EN"
 "http://www.w3.org/TR/2001/REC-SVG-20010904/DTD/svg10.dtd">
<svg version="1.0" xmlns="http://www.w3.org/2000/svg"
 width="334.000000pt" height="334.000000pt" viewBox="0 0 334.000000 334.000000"
 preserveAspectRatio="xMidYMid meet">
<metadata>
Created by potrace 1.11, written by Peter Selinger 2001-2013
</metadata>
<g transform="translate(0.000000,334.000000) scale(0.100000,-0.100000)"
fill="#000000" stroke="none">
<path d="M1627 3322 c-21 -23 -22 -60 -1 -83 15 -17 14 -20 -5 -48 -12 -16
-28 -45 -36 -64 -13 -32 -18 -35 -70 -42 -58 -7 -127 -29 -280 -88 -117 -45
-162 -53 -209 -33 -20 8 -36 16 -36 18 0 2 4 18 9 35 8 26 6 37 -8 54 -24 29
-101 38 -137 15 -34 -23 -57 -77 -45 -109 9 -23 68 -81 91 -89 14 -4 8 -18
-194 -432 -70 -143 -125 -265 -122 -272 3 -7 38 -28 78 -48 169 -84 375 -84
558 0 93 43 93 44 51 127 -20 40 -76 155 -125 257 -49 102 -106 219 -127 262
l-38 76 77 -5 c67 -4 86 -1 147 22 177 67 269 95 309 95 l43 0 6 -61 c3 -40
13 -72 26 -90 20 -27 21 -40 21 -344 0 -300 -1 -318 -21 -356 -14 -29 -23 -72
-28 -141 -11 -144 -43 -175 -184 -177 -41 -1 -59 -5 -63 -16 -5 -12 -31 -15
-144 -15 -150 0 -150 0 -150 -61 l0 -29 646 0 645 0 -3 43 -3 42 -142 3 c-111
2 -143 6 -143 16 0 9 -23 15 -79 19 -89 6 -135 26 -150 66 -5 14 -12 63 -15
108 -4 55 -14 102 -31 142 -25 60 -25 61 -25 364 0 258 2 306 15 317 18 15 45
101 45 143 l0 30 63 -6 c40 -4 112 -25 202 -59 129 -48 147 -52 226 -53 l86 0
-21 -45 c-11 -24 -85 -174 -163 -333 -79 -158 -143 -290 -143 -291 0 -2 33
-20 73 -40 136 -68 277 -89 417 -62 78 14 178 55 224 91 24 18 29 7 -164 399
-133 270 -150 310 -136 318 10 5 33 23 52 40 43 38 47 91 10 135 -21 25 -31
28 -81 28 -48 0 -60 -4 -76 -24 -18 -22 -19 -33 -2 -79 3 -7 -11 -19 -33 -28
-49 -21 -117 -9 -234 41 -94 40 -195 71 -265 80 -48 6 -51 9 -72 53 -12 26
-28 55 -35 64 -10 14 -9 20 6 37 13 14 16 28 11 50 -11 50 -66 68 -98 33z
m-365 -1099 c8 -10 -22 -13 -146 -13 l-156 0 0 306 0 305 146 -293 c80 -161
151 -299 156 -305z m1334 235 l124 -248 -155 0 -155 0 0 308 1 307 31 -60 c17
-33 87 -171 154 -307z m-1676 52 l0 -300 -150 0 -149 0 147 299 c81 165 148
300 150 300 1 1 2 -134 2 -299z m1460 0 l0 -300 -150 0 -149 0 147 299 c81
165 148 300 150 300 1 1 2 -134 2 -299z"/>
<path d="M342 2523 c-68 -96 -138 -298 -158 -449 l-6 -51 119 -90 c65 -49 156
-111 201 -138 44 -27 79 -51 77 -53 -6 -6 -159 69 -279 136 -60 34 -114 58
-119 55 -12 -7 -3 -227 13 -299 11 -50 13 -52 71 -78 73 -33 237 -76 293 -76
35 -1 38 -2 22 -12 -26 -15 -168 -4 -271 21 -44 11 -84 16 -88 11 -14 -12 32
-165 80 -267 l15 -33 142 -1 141 -1 -64 -13 c-35 -8 -90 -17 -122 -21 -42 -5
-59 -11 -59 -21 0 -24 88 -188 114 -212 l24 -23 113 31 c61 18 113 30 115 28
5 -4 -72 -39 -138 -63 -27 -9 -48 -19 -48 -21 0 -4 103 -134 140 -176 3 -4 38
4 78 17 40 14 72 23 72 21 0 -2 -22 -16 -50 -31 -27 -15 -50 -30 -50 -34 0
-13 85 -86 131 -113 24 -14 107 -53 184 -85 256 -108 402 -192 490 -282 22
-22 60 -76 85 -118 25 -42 52 -77 60 -77 7 0 33 32 57 70 113 183 208 252 516
374 212 85 306 138 359 206 l21 26 -34 30 -34 29 37 -15 c54 -22 64 -19 113
26 42 39 92 106 84 114 -2 2 -50 27 -107 55 -56 29 -101 54 -100 56 2 1 55
-13 117 -32 62 -19 121 -34 130 -34 29 0 161 190 161 233 0 11 -12 18 -37 23
-21 4 -65 13 -98 20 l-60 14 107 -6 107 -6 32 64 c46 91 98 235 88 245 -5 5
-66 3 -136 -3 -70 -6 -129 -10 -131 -8 -3 2 122 42 236 75 31 9 47 20 54 38
14 33 22 312 10 329 -10 15 -51 -2 -145 -62 -61 -39 -201 -110 -237 -121 -14
-3 9 13 51 38 87 50 198 129 277 196 l54 45 -7 60 c-7 64 -27 154 -50 221 -37
109 -111 245 -134 245 -5 0 -19 -28 -31 -62 -73 -202 -193 -362 -408 -546
-196 -166 -203 -185 -182 -491 20 -284 -5 -378 -135 -519 -75 -81 -140 -126
-207 -142 -41 -11 -52 -10 -85 6 -53 27 -74 69 -80 163 l-6 79 42 21 c22 12
41 25 41 30 0 13 -64 68 -101 87 -17 8 -55 18 -85 21 -45 5 -62 1 -109 -22
-73 -35 -107 -83 -135 -187 -26 -99 -56 -149 -103 -171 -153 -73 -326 114
-397 429 -7 33 -10 131 -8 275 l3 224 -28 47 c-15 26 -55 71 -89 100 -180 155
-228 201 -290 277 -71 88 -128 190 -173 309 -15 39 -31 72 -35 72 -5 0 -17
-12 -28 -27z"/>
</g>
</svg>
